<svg xmlns:xlink="http://www.w3.org/1999/xlink" height="500" width="1440" id="svg" viewBox="0 0 1440 500" xmlns="http://www.w3.org/2000/svg" class="transition duration-300 ease-in-out delay-150"><defs><linearGradient id="gradient"><stop offset="5%" stop-color="#0096ff88"></stop><stop offset="95%" stop-color="#0096ff88"></stop></linearGradient><linearGradient id="gradient"><stop offset="5%" stop-color="#0096ff88"></stop><stop offset="95%" stop-color="#ffffff88"></stop></linearGradient><linearGradient id="gradient"><stop offset="5%" stop-color="#0096ff88"></stop><stop offset="95%" stop-color="#ffffff88"></stop></linearGradient><linearGradient id="gradient"><stop offset="5%" stop-color="#0096ff88"></stop><stop offset="95%" stop-color="#0096ff88"></stop></linearGradient><linearGradient id="gradient"><stop offset="5%" stop-color="#0096ff88"></stop><stop offset="95%" stop-color="#0096ff88"></stop></linearGradient></defs><path d="M 0,500 C 0,500 0,166 0,166 C 123.53571428571428,138.60714285714286 247.07142857142856,111.21428571428572 353,128 C 458.92857142857144,144.78571428571428 547.25,205.75 677,216 C 806.75,226.25 977.9285714285713,185.78571428571428 1112,169 C 1246.0714285714287,152.21428571428572 1343.0357142857142,159.10714285714286 1440,166 C 1440,166 1440,500 1440,500 Z" stroke="none" stroke-width="0px" fill="url(&quot;#gradient&quot;)" class="transition-all duration-300 ease-in-out delay-150"></path><defs><linearGradient id="gradient"><stop offset="5%" stop-color="#0096ffff"></stop><stop offset="95%" stop-color="#0096ffff"></stop></linearGradient></defs><path d="M 0,500 C 0,500 0,333 0,333 C 103.17857142857142,311.0357142857143 206.35714285714283,289.07142857142856 341,295 C 475.64285714285717,300.92857142857144 641.7500000000001,334.75000000000006 779,355 C 916.2499999999999,375.24999999999994 1024.642857142857,381.9285714285714 1130,376 C 1235.357142857143,370.0714285714286 1337.6785714285716,351.53571428571433 1440,333 C 1440,333 1440,500 1440,500 Z" stroke="none" stroke-width="0px" fill="url(&quot;#gradient&quot;)" class="transition-all duration-300 ease-in-out delay-150"></path></svg>